<svg id="svg" version="1.1" xmlns="http://www.w3.org/2000/svg" xmlns:xlink="http://www.w3.org/1999/xlink" width="400" height="400" viewBox="0, 0, 400,400"><g id="svgg"><path id="path1" d="M121.135 19.978 C 77.867 26.188,42.129 31.322,41.716 31.388 C 40.922 31.514,198.861 65.390,200.196 65.380 C 201.100 65.373,358.954 31.622,358.801 31.469 C 358.745 31.413,323.388 26.330,280.230 20.175 C 237.072 14.019,201.321 8.916,200.783 8.834 C 200.245 8.753,164.403 13.768,121.135 19.978 M112.720 73.973 C 112.720 84.090,112.856 92.368,113.023 92.368 C 113.189 92.368,132.871 95.161,156.760 98.575 L 200.196 104.782 243.444 98.588 C 267.231 95.182,286.825 92.389,286.986 92.381 C 287.536 92.356,287.341 55.578,286.791 55.574 C 286.522 55.572,266.911 59.724,243.212 64.800 L 200.122 74.029 157.079 64.803 C 133.405 59.729,113.740 55.577,113.378 55.577 C 112.771 55.577,112.720 57.004,112.720 73.973 M88.454 326.663 C 85.117 327.388,80.280 328.438,77.704 328.996 C 45.053 336.074,22.412 354.049,12.402 380.839 C 10.938 384.759,9.161 391.287,9.473 391.600 C 9.574 391.700,49.558 391.738,98.328 391.684 L 186.999 391.585 157.198 370.168 C 109.949 336.212,94.640 325.241,94.578 325.295 C 94.546 325.322,91.791 325.938,88.454 326.663 M259.465 359.028 L 213.451 391.585 302.289 391.684 C 351.150 391.738,391.173 391.736,391.230 391.679 C 392.265 390.644,387.079 376.351,383.401 370.101 C 369.939 347.228,348.114 334.922,306.313 326.636 C 305.698 326.514,293.430 334.996,259.465 359.028 " stroke="none" fill="#045b9c" fill-rule="evenodd"></path><path id="path2" d="M243.836 106.957 L 200.587 113.158 157.534 107.067 C 133.855 103.717,114.173 100.976,113.796 100.977 C 113.154 100.978,113.112 102.070,113.112 118.415 C 113.112 139.583,113.290 138.925,107.412 139.433 C 98.673 140.189,93.552 150.069,93.544 166.191 C 93.536 183.559,101.018 196.086,111.400 196.086 C 114.194 196.086,114.881 197.025,116.410 202.935 C 121.786 223.706,135.782 246.147,149.050 255.272 C 150.057 255.965,151.416 257.065,152.069 257.718 C 152.723 258.370,155.064 260.117,157.271 261.600 C 161.913 264.718,162.427 265.319,162.427 267.632 C 162.427 271.538,158.984 272.732,154.873 270.253 C 153.624 269.501,152.543 268.885,152.469 268.885 C 152.396 268.885,152.252 273.420,152.150 278.963 C 151.893 292.933,150.582 297.060,144.337 303.565 C 136.896 311.315,126.548 316.451,105.922 322.630 C 105.735 322.686,110.226 326.060,115.903 330.129 C 121.579 334.197,126.311 337.635,126.419 337.769 C 126.743 338.172,198.892 389.992,199.642 390.361 C 200.264 390.666,230.677 369.461,291.532 326.291 L 294.806 323.968 288.988 322.290 C 270.559 316.971,259.112 311.394,251.354 303.952 C 243.604 296.519,241.498 290.476,241.490 275.652 L 241.487 269.308 239.540 270.519 C 236.352 272.500,233.162 271.335,232.619 267.990 C 232.282 265.915,232.884 265.225,239.015 260.654 C 257.874 246.594,272.202 225.777,278.475 203.327 C 280.242 197.001,280.620 196.551,284.578 196.059 C 296.774 194.541,304.283 179.362,303.606 157.591 C 303.217 145.071,299.722 139.335,292.481 139.335 C 287.485 139.335,287.509 139.431,287.280 118.577 L 287.084 100.756 243.836 106.957 " stroke="none" fill="#f6f6f9" fill-rule="evenodd"></path><path id="path3" d="M303.847 158.317 C 303.848 159.824,303.919 160.392,304.004 159.580 C 304.089 158.768,304.087 157.535,304.001 156.841 C 303.914 156.146,303.845 156.810,303.847 158.317 M93.263 164.971 C 93.266 166.047,93.342 166.441,93.432 165.846 C 93.522 165.251,93.519 164.370,93.426 163.889 C 93.333 163.408,93.260 163.894,93.263 164.971 M93.241 168.689 C 93.241 169.442,93.322 169.750,93.420 169.374 C 93.519 168.997,93.519 168.381,93.420 168.004 C 93.322 167.627,93.241 167.935,93.241 168.689 M142.270 249.706 C 143.330 250.783,144.286 251.663,144.393 251.663 C 144.501 251.663,143.722 250.783,142.661 249.706 C 141.601 248.630,140.646 247.750,140.538 247.750 C 140.431 247.750,141.210 248.630,142.270 249.706 M151.998 281.605 C 151.997 283.542,152.063 284.384,152.145 283.476 C 152.227 282.567,152.228 280.982,152.147 279.953 C 152.066 278.924,151.999 279.667,151.998 281.605 M143.430 304.207 L 141.487 306.262 143.542 304.320 C 144.672 303.252,145.597 302.327,145.597 302.265 C 145.597 301.973,145.234 302.298,143.430 304.207 " stroke="none" fill="#9494a4" fill-rule="evenodd"></path><path id="path4" d="M112.814 118.493 L 112.908 136.399 113.014 118.807 C 113.095 105.335,113.233 101.143,113.605 100.907 C 113.948 100.689,113.889 100.597,113.405 100.593 C 112.761 100.587,112.726 101.663,112.814 118.493 M138.552 245.524 C 138.552 245.591,139.124 246.163,139.824 246.796 L 141.096 247.945 139.946 246.673 C 138.875 245.487,138.552 245.221,138.552 245.524 M250.673 250.587 L 248.337 253.033 250.783 250.697 C 252.128 249.412,253.229 248.312,253.229 248.251 C 253.229 247.962,252.843 248.315,250.673 250.587 M144.423 251.394 C 144.423 251.462,144.995 252.034,145.695 252.667 L 146.967 253.816 145.817 252.544 C 144.746 251.358,144.423 251.092,144.423 251.394 M151.927 273.483 C 151.998 278.595,152.155 277.997,152.341 271.917 C 152.399 270.033,152.314 268.492,152.153 268.492 C 151.991 268.493,151.890 270.739,151.927 273.483 M241.638 273.973 C 241.638 276.663,241.701 277.764,241.777 276.419 C 241.853 275.073,241.853 272.872,241.777 271.526 C 241.701 270.181,241.638 271.282,241.638 273.973 M241.605 281.409 C 241.605 282.593,241.678 283.077,241.768 282.485 C 241.857 281.893,241.857 280.925,241.768 280.333 C 241.678 279.741,241.605 280.225,241.605 281.409 " stroke="none" fill="#aeb0c1" fill-rule="evenodd"></path><path id="path0" d="M107.427 13.490 C 57.481 20.649,16.228 26.628,15.754 26.779 C 12.676 27.756,12.523 33.165,15.539 34.383 C 16.438 34.746,25.337 36.791,26.018 36.791 C 26.127 36.791,26.263 71.061,26.318 112.948 L 26.419 189.105 27.697 190.247 C 29.465 191.827,31.592 191.827,33.360 190.247 L 34.638 189.105 34.739 113.885 L 34.840 38.664 35.717 38.883 C 36.200 39.003,51.477 42.289,69.667 46.184 C 87.857 50.079,103.136 53.365,103.620 53.486 L 104.501 53.705 104.501 92.395 L 104.501 131.085 102.847 131.531 C 92.584 134.294,86.641 144.325,85.269 161.203 C 83.548 182.381,92.043 200.202,105.536 203.716 C 108.203 204.411,107.769 203.894,108.808 207.619 C 114.387 227.622,125.934 246.505,140.289 259.100 L 143.634 262.035 143.632 274.560 C 143.631 284.032,143.497 287.584,143.084 289.137 C 139.609 302.193,120.673 311.654,82.565 319.375 C 51.793 325.610,32.664 335.882,18.036 354.027 C 6.504 368.330,-3.045 394.275,1.535 398.856 L 2.680 400.000 200.196 400.000 L 397.712 400.000 398.913 398.799 L 400.114 397.598 399.855 393.809 C 398.597 375.404,386.771 355.367,369.456 342.301 C 354.972 331.372,339.183 324.903,314.463 319.769 C 277.579 312.110,258.193 303.311,252.216 291.518 C 250.386 287.905,250.110 285.590,250.104 273.777 L 250.098 262.818 254.395 258.787 C 268.829 245.243,280.440 226.546,285.933 208.001 L 286.983 204.455 290.361 203.427 C 303.873 199.314,311.956 183.018,312.026 159.748 C 312.076 143.330,308.126 135.342,298.328 132.044 L 295.695 131.158 295.595 92.417 L 295.495 53.677 297.748 53.209 C 339.119 44.625,384.853 34.468,385.693 33.679 C 387.519 31.964,387.308 28.538,385.295 27.219 C 384.298 26.566,202.529 0.345,199.613 0.433 C 198.857 0.456,157.374 6.332,107.427 13.490 M280.230 20.175 C 323.388 26.330,358.745 31.413,358.801 31.469 C 358.954 31.622,201.100 65.373,200.196 65.380 C 198.861 65.390,40.922 31.514,41.716 31.388 C 53.461 29.524,200.104 8.732,200.783 8.834 C 201.321 8.916,237.072 14.019,280.230 20.175 M157.079 64.803 L 200.122 74.029 243.212 64.800 C 266.911 59.724,286.522 55.572,286.791 55.574 C 287.341 55.578,287.536 92.356,286.986 92.381 C 286.825 92.389,267.231 95.182,243.444 98.588 L 200.196 104.782 156.760 98.575 C 132.871 95.161,113.189 92.368,113.023 92.368 C 112.856 92.368,112.720 84.090,112.720 73.973 C 112.720 57.004,112.771 55.577,113.378 55.577 C 113.740 55.577,133.405 59.729,157.079 64.803 M156.849 106.793 L 200.000 112.973 243.151 106.793 C 266.884 103.395,286.515 100.608,286.776 100.601 C 287.139 100.590,287.276 104.802,287.363 118.582 L 287.476 136.578 288.511 137.612 C 289.328 138.430,290.215 138.754,292.731 139.157 C 301.160 140.507,303.841 145.484,303.804 159.716 C 303.748 180.791,296.616 194.630,285.052 196.096 C 281.141 196.591,280.404 197.111,279.644 199.904 C 272.455 226.360,258.258 247.224,237.372 262.029 C 233.047 265.095,232.257 266.265,232.913 268.640 C 233.710 271.525,236.663 272.173,239.778 270.145 L 241.683 268.905 241.916 278.386 C 242.170 288.750,242.499 290.547,245.073 295.662 C 250.494 306.435,265.094 315.273,288.574 321.996 C 292.154 323.021,294.957 323.981,294.802 324.131 C 293.869 325.029,200.509 390.731,200.161 390.734 C 199.626 390.738,105.177 322.872,105.404 322.646 C 105.495 322.554,108.106 321.703,111.206 320.755 C 134.088 313.754,146.786 304.695,150.722 292.564 C 151.529 290.074,151.631 288.834,151.833 278.971 L 152.055 268.117 154.482 269.713 C 158.270 272.204,161.357 271.687,162.186 268.424 C 162.744 266.225,161.908 265.110,157.337 261.962 C 155.078 260.405,152.613 258.561,151.859 257.865 C 151.106 257.168,149.785 256.135,148.924 255.569 C 136.403 247.338,121.347 223.352,116.303 203.600 C 114.571 196.818,114.363 196.575,109.825 196.066 C 98.962 194.848,91.907 179.930,93.492 161.534 C 94.741 147.047,99.331 139.861,107.845 139.066 C 110.100 138.855,110.747 138.629,111.642 137.734 L 112.720 136.655 112.720 118.621 C 112.720 104.448,112.825 100.590,113.209 100.601 C 113.478 100.608,133.116 103.395,156.849 106.793 M111.017 336.998 C 120.026 343.462,140.808 358.389,157.198 370.168 L 186.999 391.585 98.328 391.684 C 49.558 391.738,9.574 391.700,9.473 391.600 C 9.161 391.287,10.938 384.759,12.402 380.839 C 22.412 354.049,45.053 336.074,77.704 328.996 C 90.818 326.153,94.526 325.340,94.578 325.295 C 94.610 325.267,102.007 330.534,111.017 336.998 M313.945 328.193 C 354.774 336.551,379.902 354.851,389.168 382.975 C 390.146 385.941,391.452 391.457,391.230 391.679 C 391.173 391.736,351.150 391.738,302.289 391.684 L 213.451 391.585 259.465 359.028 C 293.430 334.996,305.698 326.514,306.313 326.636 C 306.771 326.727,310.206 327.428,313.945 328.193 " stroke="none" fill="#1c345e" fill-rule="evenodd"></path><path id="path1" d="M121.135 19.978 C 77.867 26.188,42.129 31.322,41.716 31.388 C 40.922 31.514,198.861 65.390,200.196 65.380 C 201.100 65.373,358.954 31.622,358.801 31.469 C 358.745 31.413,323.388 26.330,280.230 20.175 C 237.072 14.019,201.321 8.916,200.783 8.834 C 200.245 8.753,164.403 13.768,121.135 19.978 M112.720 73.973 C 112.720 84.090,112.856 92.368,113.023 92.368 C 113.189 92.368,132.871 95.161,156.760 98.575 L 200.196 104.782 243.444 98.588 C 267.231 95.182,286.825 92.389,286.986 92.381 C 287.536 92.356,287.341 55.578,286.791 55.574 C 286.522 55.572,266.911 59.724,243.212 64.800 L 200.122 74.029 157.079 64.803 C 133.405 59.729,113.740 55.577,113.378 55.577 C 112.771 55.577,112.720 57.004,112.720 73.973 M88.454 326.663 C 85.117 327.388,80.280 328.438,77.704 328.996 C 45.053 336.074,22.412 354.049,12.402 380.839 C 10.938 384.759,9.161 391.287,9.473 391.600 C 9.574 391.700,49.558 391.738,98.328 391.684 L 186.999 391.585 157.198 370.168 C 109.949 336.212,94.640 325.241,94.578 325.295 C 94.546 325.322,91.791 325.938,88.454 326.663 M259.465 359.028 L 213.451 391.585 302.289 391.684 C 351.150 391.738,391.173 391.736,391.230 391.679 C 392.265 390.644,387.079 376.351,383.401 370.101 C 369.939 347.228,348.114 334.922,306.313 326.636 C 305.698 326.514,293.430 334.996,259.465 359.028 " stroke="none" fill="#045b9c" fill-rule="evenodd"></path><path id="path2" d="M243.836 106.957 L 200.587 113.158 157.534 107.067 C 133.855 103.717,114.173 100.976,113.796 100.977 C 113.154 100.978,113.112 102.070,113.112 118.415 C 113.112 139.583,113.290 138.925,107.412 139.433 C 98.673 140.189,93.552 150.069,93.544 166.191 C 93.536 183.559,101.018 196.086,111.400 196.086 C 114.194 196.086,114.881 197.025,116.410 202.935 C 121.786 223.706,135.782 246.147,149.050 255.272 C 150.057 255.965,151.416 257.065,152.069 257.718 C 152.723 258.370,155.064 260.117,157.271 261.600 C 161.913 264.718,162.427 265.319,162.427 267.632 C 162.427 271.538,158.984 272.732,154.873 270.253 C 153.624 269.501,152.543 268.885,152.469 268.885 C 152.396 268.885,152.252 273.420,152.150 278.963 C 151.893 292.933,150.582 297.060,144.337 303.565 C 136.896 311.315,126.548 316.451,105.922 322.630 C 105.735 322.686,110.226 326.060,115.903 330.129 C 121.579 334.197,126.311 337.635,126.419 337.769 C 126.743 338.172,198.892 389.992,199.642 390.361 C 200.264 390.666,230.677 369.461,291.532 326.291 L 294.806 323.968 288.988 322.290 C 270.559 316.971,259.112 311.394,251.354 303.952 C 243.604 296.519,241.498 290.476,241.490 275.652 L 241.487 269.308 239.540 270.519 C 236.352 272.500,233.162 271.335,232.619 267.990 C 232.282 265.915,232.884 265.225,239.015 260.654 C 257.874 246.594,272.202 225.777,278.475 203.327 C 280.242 197.001,280.620 196.551,284.578 196.059 C 296.774 194.541,304.283 179.362,303.606 157.591 C 303.217 145.071,299.722 139.335,292.481 139.335 C 287.485 139.335,287.509 139.431,287.280 118.577 L 287.084 100.756 243.836 106.957 " stroke="none" fill="#f6f6f9" fill-rule="evenodd"></path><path id="path3" d="M303.847 158.317 C 303.848 159.824,303.919 160.392,304.004 159.580 C 304.089 158.768,304.087 157.535,304.001 156.841 C 303.914 156.146,303.845 156.810,303.847 158.317 M93.263 164.971 C 93.266 166.047,93.342 166.441,93.432 165.846 C 93.522 165.251,93.519 164.370,93.426 163.889 C 93.333 163.408,93.260 163.894,93.263 164.971 M93.241 168.689 C 93.241 169.442,93.322 169.750,93.420 169.374 C 93.519 168.997,93.519 168.381,93.420 168.004 C 93.322 167.627,93.241 167.935,93.241 168.689 M142.270 249.706 C 143.330 250.783,144.286 251.663,144.393 251.663 C 144.501 251.663,143.722 250.783,142.661 249.706 C 141.601 248.630,140.646 247.750,140.538 247.750 C 140.431 247.750,141.210 248.630,142.270 249.706 M151.998 281.605 C 151.997 283.542,152.063 284.384,152.145 283.476 C 152.227 282.567,152.228 280.982,152.147 279.953 C 152.066 278.924,151.999 279.667,151.998 281.605 M143.430 304.207 L 141.487 306.262 143.542 304.320 C 144.672 303.252,145.597 302.327,145.597 302.265 C 145.597 301.973,145.234 302.298,143.430 304.207 " stroke="none" fill="#9494a4" fill-rule="evenodd"></path><path id="path4" d="M112.814 118.493 L 112.908 136.399 113.014 118.807 C 113.095 105.335,113.233 101.143,113.605 100.907 C 113.948 100.689,113.889 100.597,113.405 100.593 C 112.761 100.587,112.726 101.663,112.814 118.493 M138.552 245.524 C 138.552 245.591,139.124 246.163,139.824 246.796 L 141.096 247.945 139.946 246.673 C 138.875 245.487,138.552 245.221,138.552 245.524 M250.673 250.587 L 248.337 253.033 250.783 250.697 C 252.128 249.412,253.229 248.312,253.229 248.251 C 253.229 247.962,252.843 248.315,250.673 250.587 M144.423 251.394 C 144.423 251.462,144.995 252.034,145.695 252.667 L 146.967 253.816 145.817 252.544 C 144.746 251.358,144.423 251.092,144.423 251.394 M151.927 273.483 C 151.998 278.595,152.155 277.997,152.341 271.917 C 152.399 270.033,152.314 268.492,152.153 268.492 C 151.991 268.493,151.890 270.739,151.927 273.483 M241.638 273.973 C 241.638 276.663,241.701 277.764,241.777 276.419 C 241.853 275.073,241.853 272.872,241.777 271.526 C 241.701 270.181,241.638 271.282,241.638 273.973 M241.605 281.409 C 241.605 282.593,241.678 283.077,241.768 282.485 C 241.857 281.893,241.857 280.925,241.768 280.333 C 241.678 279.741,241.605 280.225,241.605 281.409 " stroke="none" fill="#aeb0c1" fill-rule="evenodd"></path></g></svg>